<svg xmlns="http://www.w3.org/2000/svg" width="800" height="800" class="icon" viewBox="0 0 1024 1024"><path fill="#e326e4" d="m800.374 715.205-26.37 44.84a25.94 25.94 0 0 0-3.579 13.14v14.521a45.36 45.36 0 0 0 5.612 21.845l13.485 24.53 31.176-66.468 5.867-64.59a1.713 1.713 0 0 0-1.7-1.865 28.4 28.4 0 0 0-24.49 14.047M183.963 302.8h-7.043l-14.06 16.336 10.57 31.482.678 2.096a12.386 12.386 0 0 0 17.153 7.363 19.93 19.93 0 0 0 11.044-21.09l-3.195-20.069zm-14.61 428.448h24.452a16.62 16.62 0 0 1 15.965 11.9l3.554 11.888a20.64 20.64 0 0 0 16.13 14.457c7.414 1.278 15.697 2.735 17.423 2.735s12.501 7.963 21.73 15.134a17.22 17.22 0 0 1 2.467 24.938l-2.084 2.403q-.268.307-.562.601l-22.113 22.356-53.302-36.212-29.31-61.227a6.263 6.263 0 0 1 5.65-8.973m146.51-584.762-30.09 37.375a11 11 0 0 1-.805.895l-19.774 19.761a11 11 0 0 0-1.112 1.278l-18.93 25.808a11.25 11.25 0 0 0-2.071 8.244l3.834 26.677a11.3 11.3 0 0 1 0 3.323l-.102.626a11.248 11.248 0 0 0 18.01 10.635l72.527-56.114a11.25 11.25 0 0 0 4.371-9.062c-.153-10.507-.422-32.288.09-34.32s25.82-21.577 36.25-29.528a11.24 11.24 0 0 0 4.423-8.947v-15.007a11.248 11.248 0 0 0-16.617-9.88l-46.566 25.41a11.25 11.25 0 0 0-3.438 2.826M509.194 93.374a5.48 5.48 0 0 0-.703 4.832c3.209 9.791 13.805 44.52 5.177 50.554-10.072 7.043-27.188 21.359-16.105 31.214s-45.3-27.622-60.41 9.855-34.217 46.425-33.233 64.538 15.096 0 21.142 0 6.966 32.262-17.116 42.335-73.498-23.162-66.468 14.06 26.179 56.587 6.046 64.435-20.132 58.39 2.02 51.347 34.308-3.017 34.308-13.09 11.005-58.389 24.081-51.346 29.195 1.279 32.212 11.07-18.126 23.161 3.016 25.168c14.419 1.368 19.468-18.33 21.232-30.997a5.484 5.484 0 0 1 8.947-3.425c9.101 7.669 25.36 7.669 26.677 7.49 10.826-1.547 31.712-29.4 32.722-32.467.384-1.15 2.672-6.11 5.356-11.798 6.136-13.012 12.015-20.886 25.565-25.565l9.714-1.815a15 15 0 0 0 2.876-.14 5.5 5.5 0 0 1 2.902.447l28.721 15.237a5.496 5.496 0 0 1 1.087 9.369c-9.485 7.26-25.565 19.557-31.84 24.376-9.178 7.043-26.294.217-29.31 17.115s-2.02 19.174 9.062 26.178c7.99 5.113 25.424-1.994 34.512-6.39a5.484 5.484 0 0 1 7.67 3.425l6.57 22.458a5.496 5.496 0 0 1-4.078 6.903l-37.823 8.449-43.843 8.32a68.26 68.26 0 0 1-32.224-1.648l-21.934-6.545a5.5 5.5 0 0 0-.83-.178l-27.7-3.835a83 83 0 0 0-52.931 10.456l-37.325 21.73a5.5 5.5 0 0 0-.805.562l-1.431 1.278a198.1 198.1 0 0 0-56.587 79.698l-.307.805a71.2 71.2 0 0 0-1.956 45.786l7.388 25.18a99.06 99.06 0 0 0 29.144 46.017l.716.64a100.98 100.98 0 0 0 56.996 25.065l25.845 2.557a36.17 36.17 0 0 0 31.509-12.936 5.5 5.5 0 0 1 4.333-1.994l14.2.268a46.76 46.76 0 0 1 44.368 35.062l6.89 26.702a5.5 5.5 0 0 0 1.278 2.365l21.449 23.174a32.22 32.22 0 0 1 7.004 31.84l-1.393 4.666a40.58 40.58 0 0 0 10.302 41.62l54.734 53.237a5.5 5.5 0 0 0 1.483 1.023l37.9 17.895a5.5 5.5 0 0 0 3.476.41l35.177-7.376a5.5 5.5 0 0 0 4.116-3.745l23.34-75.083 17.294-48.65a172.1 172.1 0 0 0 9.178-73.868l-1.202-12.783a116.5 116.5 0 0 1 5.05-46.54l17.728-55.232a5.5 5.5 0 0 1 .384-.895l28.722-54.069a5.496 5.496 0 0 0-5.803-7.988l-36.839 6.442a42.5 42.5 0 0 1-18.764-.933l-47.103-13.128a5.5 5.5 0 0 1-3.132-2.313l-29.846-46.26-.217-.357a5.496 5.496 0 0 1 8.385-6.8l37.963 32.364a5.5 5.5 0 0 0 2.122 1.125l37.196 10.085a5.5 5.5 0 0 0 5.113-1.278l26.932-24.273a5.5 5.5 0 0 0 1.47-2.186l16.847-45.85a5.5 5.5 0 0 0-.23-4.32l-5.534-11.287a5.5 5.5 0 0 0-4.32-3.042l-49.443-5.535a5.5 5.5 0 0 1-3.4-1.7l-10.813-11.504a5.496 5.496 0 0 1 2.313-8.948l12.322-3.988a5.5 5.5 0 0 1 1.189-.243l72.718-6.698a5.5 5.5 0 0 1 5.024 2.34l24.49 35.38a5.5 5.5 0 0 0 2.199 1.854l43.613 20.35a5.4 5.4 0 0 1 .652.358c3.272 2.109 31.074 20.17 31.074 23.954v-28.53a5.5 5.5 0 0 0-.154-1.279l-11.235-46.016a122.6 122.6 0 0 1-3.4-23.903l-1.394-33.233a5.5 5.5 0 0 0-1.137-3.12L752.326 149.132a5.5 5.5 0 0 0-2.697-1.892l-224.035-70.75a5.5 5.5 0 0 0-6.174 2.11z"/><path fill="#fff" d="M511.994 965.559A453.233 453.233 0 0 1 335.599 94.92a453.233 453.233 0 0 1 352.79 835.013 450.3 450.3 0 0 1-176.395 35.625m0-852.577c-220.251 0-399.446 179.195-399.446 399.446s179.195 399.445 399.446 399.445S911.439 732.68 911.439 512.428 732.257 112.982 511.994 112.982"/><path fill="#fff" d="M642.36 920.003a19 19 0 0 1-8.117-1.815l-37.9-17.896a18.9 18.9 0 0 1-5.112-3.54l-54.734-53.238a53.69 53.69 0 0 1-13.702-55.437l1.47-4.512a18.83 18.83 0 0 0-4.09-18.586l-21.45-23.174a19 19 0 0 1-4.435-8.104L487.4 707a33.44 33.44 0 0 0-31.635-24.99l-10.584-.204a49.5 49.5 0 0 1-40.558 14.828l-25.846-2.557a113.66 113.66 0 0 1-64.576-28.402l-.716-.639a112.4 112.4 0 0 1-33.093-52.305l-7.388-25.181a84.1 84.1 0 0 1 2.314-54.53l.306-.804a212.1 212.1 0 0 1 60.435-85.105l1.431-1.278a19 19 0 0 1 2.749-1.943l5.598-3.246c-10.622.14-19.736-6.673-23.928-18.535-6.391-17.895-1.278-50.81 20.784-59.412l.332-.14c-.447-3.234-2.812-9.779-4.614-14.75a216 216 0 0 1-10.085-34.513c-2.25-11.913-.243-21.065 5.982-27.2 10.225-10.111 25.986-6.916 41.184-3.835 9.638 1.968 21.628 4.41 27.277 2.045a18.92 18.92 0 0 0 9.498-8.845 16.85 16.85 0 0 1-11.351-1.38c-6.391-3.184-9.868-9.575-10.392-18.995-.793-14.201 6.391-24.287 13.958-34.883 6.059-8.5 13.613-19.084 20.222-35.484 6.902-17.115 21.461-26.14 41.005-25.41a79.3 79.3 0 0 1 17.167 2.735c3.31-7.44 10.149-14.917 20.681-22.638.32-5.113-1.7-18.406-7.822-37.068a19.02 19.02 0 0 1 2.416-16.617l10.225-14.776a18.83 18.83 0 0 1 21.244-7.274l224.035 70.75a18.83 18.83 0 0 1 9.293 6.494L892.726 309.56a18.8 18.8 0 0 1 3.911 10.724l1.42 33.234a109.4 109.4 0 0 0 3.016 21.244l11.235 46.016a19 19 0 0 1 .537 4.487v28.887a13.421 13.421 0 0 1-25.628 5.573c-3.707-3.374-14.278-10.928-25.68-18.304l-43.114-20.119a18.94 18.94 0 0 1-7.555-6.391l-21.87-31.598-66.8 6.161.192.205 46.59 5.113a18.83 18.83 0 0 1 14.892 10.468l5.535 11.287a19 19 0 0 1 .78 14.853l-16.847 45.85a19 19 0 0 1-5.113 7.503l-26.856 24.44a18.87 18.87 0 0 1-9.56 4.627 29 29 0 0 0 6.505-.396l36.826-6.455a18.918 18.918 0 0 1 19.915 27.494l-28.39 53.443-17.511 54.631a102.5 102.5 0 0 0-4.461 41.185l1.201 12.782a186.8 186.8 0 0 1-9.893 79.62l-17.167 48.33-23.264 74.828a18.93 18.93 0 0 1-14.175 12.897l-35.177 7.375a19 19 0 0 1-3.86.448m-33.336-43.46 34.295 16.246 28.005-5.867 21.96-70.635.167-.51 17.243-48.65a159.8 159.8 0 0 0 8.462-68.104l-1.202-12.782a129.2 129.2 0 0 1 5.624-51.909l17.793-55.296a19 19 0 0 1 1.278-3.093l21.117-39.74-20.835 3.655a56.24 56.24 0 0 1-24.696-1.278l-47.115-13.166a18.9 18.9 0 0 1-10.801-7.95l-29.847-46.195a12 12 0 0 1-.728-1.278 18.918 18.918 0 0 1 28.888-23.43l36.608 31.214 31.304 8.487 22.305-20.157 15.006-40.84-2.134-4.345-45.173-5.011a18.93 18.93 0 0 1-11.721-5.867l-10.814-11.504a18.918 18.918 0 0 1 7.989-30.933l12.322-3.988a19 19 0 0 1 4.078-.844l72.718-6.698a18.94 18.94 0 0 1 17.307 8.22l23.29 33.642 41.67 19.442a19 19 0 0 1 2.262 1.278c1.06.678 5.19 3.362 10.149 6.736l-10.788-44.137a136.3 136.3 0 0 1-3.758-26.472l-1.279-30.754-126.761-164.75-216.02-68.232-4.666 6.749c13.92 44.367 6.8 56.446-1.086 61.956s-11.58 9.612-13.153 11.887c6.979 7.67 3.528 14.84 2.211 16.975-.946 1.56-6.238 9.114-17.064 5.51-1.125-.372-2.378-.87-3.963-1.484-29.552-11.504-36.582-5.752-39.79 2.186-7.798 19.352-16.733 31.879-23.264 41.031a349 349 0 0 0-3.733 5.318 17 17 0 0 1 2.467-.18c6.391 0 14.06 4.09 16.336 15.557 3.131 15.62-3.566 42.258-28.275 52.586-13.268 5.547-29.054 2.326-42.986-.512a125 125 0 0 0-15.786-2.556 30 30 0 0 0 .345 2.288 190.6 190.6 0 0 0 8.947 30.409c3.49 9.65 6.238 17.282 6.276 24.849 0 6.468-2.224 18.214-17.498 24.171-1.279.486-3.758 3.438-5.254 9.305-1.751 6.89-1.074 13.192 0 16.221a148 148 0 0 1 20.72-4.5l2.978-.485c1.777-14.06 9.05-48.202 24.517-57.43a18.76 18.76 0 0 1 18.905-.512c3.349 1.802 7.797 2.237 12.5 2.71 7.261.716 18.855 1.853 24.402 11.964a18.905 18.905 0 0 1 30.844-11.274c3.655 3.093 11.887 4.27 15.888 4.372 5.535-2.927 19.033-18.675 22.535-24.491.55-1.38 1.84-4.308 5.522-12.13 7.299-15.493 15.415-26.345 33.336-32.57a13.5 13.5 0 0 1 1.943-.51l9.714-1.816a13.4 13.4 0 0 1 3.158-.205l.613-.063a18.9 18.9 0 0 1 9.97 1.533l.793.384 28.44 15.096a18.918 18.918 0 0 1 3.234 32.032c-9.471 7.248-25.564 19.544-31.815 24.363-6.071 4.666-12.871 5.752-18.317 6.621a36.5 36.5 0 0 0-5.7 1.189 7 7 0 0 0-.243 1.01 68 68 0 0 0-1.279 9.523 45 45 0 0 0 3.835 2.556c1.956.217 9.088-.562 22.075-6.775a18.905 18.905 0 0 1 26.293 11.773l6.57 22.458a18.92 18.92 0 0 1-14.06 23.763l-37.823 8.449-.422.09-43.843 8.32a82 82 0 0 1-38.564-1.98l-21.36-6.392-27.085-3.707a69.9 69.9 0 0 0-44.367 8.769l-36.838 21.384-.895.755a185.2 185.2 0 0 0-52.753 74.29l-.306.805a57.52 57.52 0 0 0-1.61 37.184l7.387 25.18a85.56 85.56 0 0 0 25.194 39.83l.716.64a86.92 86.92 0 0 0 49.416 21.73l25.846 2.556a22.71 22.71 0 0 0 19.825-8.13 18.82 18.82 0 0 1 14.943-6.851l14.2.268a60.36 60.36 0 0 1 57.112 45.122l6.39 24.759 20.095 21.73a45.68 45.68 0 0 1 9.919 45.108l-1.445 4.525a26.98 26.98 0 0 0 6.89 27.853zM449.13 411.589l17.626 2.415a19 19 0 0 1 2.838.614l21.934 6.544a55.1 55.1 0 0 0 25.884 1.279l43.639-8.296 29.4-6.557-1.663-5.676c-17.243 6.903-30.05 7.49-38.985 1.803-17.04-10.852-18.714-19.468-15.07-39.855a33.2 33.2 0 0 1 1.98-6.916 187 187 0 0 1-6.518 7.798c-14.61 16.45-23.072 19.326-28.121 20.055a61.7 61.7 0 0 1-26.575-4.142c-5.803 22.791-17.562 29.361-26.37 30.934m-41.568-34.909c-4.768 8.82-10.226 30.678-10.226 36.915v.103a97.1 97.1 0 0 1 34.333-4.219 18.47 18.47 0 0 1-9.395-8.346c-4.359-8.27-.6-16.144 2.199-21.257h-.243a69.6 69.6 0 0 1-16.668-3.247zm137.895-33.093a23.4 23.4 0 0 1-1.969 3.835c6.391-5.471 14.47-6.775 19.34-7.555 2.134-.345 5.368-.856 6.237-1.419l22.011-16.86-15.76-8.423h-.703l-7.337 1.368c-7.912 2.94-11.67 7.068-16.988 18.342-3.86 8.309-4.69 10.277-4.831 10.66zm.09-.243-.078.217zm-286.196-46.399a24.734 24.734 0 0 1-24.4-28.518v-.306l-3.772-26.357a24.54 24.54 0 0 1 4.576-18.075l18.931-25.807a25 25 0 0 1 2.454-2.85l19.685-19.685 30.013-37.299a24.6 24.6 0 0 1 7.4-6.186l46.566-25.411a24.67 24.67 0 0 1 36.494 21.653v15.057a24.81 24.81 0 0 1-9.715 19.621c-17.652 13.447-27.022 21.027-31.24 24.644 0 4.78 0 13.83.18 28.326a24.79 24.79 0 0 1-9.575 19.876l-72.526 56.114a24.6 24.6 0 0 1-15.07 5.203m-1.418-58.083 3.68 25.807a25 25 0 0 1 .244 2.876l67.822-52.407c-.473-32.748 0-34.665.512-36.685 1.278-5.113 1.725-6.89 40.277-36.289v-10.379l-42.987 23.455-29.821 37.069a25 25 0 0 1-1.777 1.968l-19.646 19.647zm-11.556 612.193a13.4 13.4 0 0 1-7.541-2.313l-53.353-36.238a13.4 13.4 0 0 1-4.563-5.305l-29.323-61.176a19.685 19.685 0 0 1 17.755-28.184h24.452a30.27 30.27 0 0 1 28.824 21.486l3.554 11.888a7.18 7.18 0 0 0 5.637 5.049c11.504 2.058 14.7 2.454 15.44 2.556 4.934.077 8.73 1.803 29.617 17.896a30.677 30.677 0 0 1 4.333 44.367l-2.083 2.403c-.371.422-.755.83-1.15 1.278l-22.114 22.356a13.4 13.4 0 0 1-9.485 3.937m-42.82-58.734 41.133 27.929 14.265-14.418 2.07-2.378a3.835 3.835 0 0 0-.549-5.51c-10.52-8.129-15.249-11.375-17.205-12.628-2.556-.332-7.26-1.06-16.182-2.659a33.9 33.9 0 0 1-26.638-23.787l-3.554-11.888a3.26 3.26 0 0 0-3.106-2.314H180.73zm43.319-33.554"/><path fill="#fff" d="M789.637 839.794a13.42 13.42 0 0 1-11.76-6.954l-13.498-24.516a58.94 58.94 0 0 1-7.273-28.313v-14.52a39.4 39.4 0 0 1 5.433-19.953l26.37-44.84a41.99 41.99 0 0 1 36.07-20.682 15.134 15.134 0 0 1 15.071 16.617l-5.867 64.576a13.4 13.4 0 0 1-1.278 4.486l-31.176 66.468a13.42 13.42 0 0 1-11.721 7.67zm21.73-124.333-25.68 43.677a12.5 12.5 0 0 0-1.725 6.391v14.52a32.03 32.03 0 0 0 3.95 15.34l.78 1.406 18.968-40.43zm-625.512-340.75a25.81 25.81 0 0 1-24.555-17.894l-.652-2.02-10.545-31.406a13.42 13.42 0 0 1 2.556-13.038l14.06-16.336a13.42 13.42 0 0 1 10.162-4.652h7.043a13.42 13.42 0 0 1 9.792 4.243l15.095 16.106a13.4 13.4 0 0 1 3.464 7.069l3.196 20.068a33.55 33.55 0 0 1-18.483 35.304 25.8 25.8 0 0 1-11.133 2.557m-7.874-52.598 8.142 24.286v.153l.281.857a6.56 6.56 0 0 0 2.557-6.263l-2.557-16.004-5.752-6.135z"/><path fill="#fff" d="M511.994 1023.999A511.584 511.584 0 0 1 0 511.993a13.421 13.421 0 0 1 26.842 0c0 267.52 217.644 485.15 485.15 485.15s485.164-217.63 485.164-485.15-217.644-485.15-485.163-485.15a13.421 13.421 0 0 1 0-26.843 512.134 512.134 0 0 1 199.3 983.76 508.8 508.8 0 0 1-199.3 40.239"/></svg>