<?xml version="1.0" encoding="UTF-8"?><svg id="uuid-b90a51f3-3674-4307-9861-9c993d2806df" xmlns="http://www.w3.org/2000/svg" viewBox="0 0 207.6 241.17">
<title>L Death Note logo - Brandlogos.net</title><path d="M25.03,241.03c41.06-29.64,107.42-38.81,148.62-1.23,10.86-11.53,22.02-23.12,33.83-34.07.12-4.52-1.83-5.44-4.73-4.73l-6.59,7.15c-38.28-23.22-63.64-27.17-94.3-12.39-3.78,1.13-5.82.82-4.04-2.66,10.37-11.29,20.81-21.53,28.85-32.68,6.69-8.77,18.51-27.28,16.47-68.58-2.45-31.71-19.15-84.11,22.94-86.28,6.49-.31,6.81-5.69.48-5.15-13.65.45-25.73,2.9-35.26,8.58-33.12,13.83-20.84,66.12-19.12,93.34,3.81,42.07-4.59,75.45-38.06,101.53-.85-1.07-1.3-2.29-.69-3.73,35.92-48.44,19.6-94.31,17.84-146.35,1.77-22.78,13.1-38.81,27.42-51.15.03-.04,2.48-4.8-3.95-1.14-16.98,9.65-28.33,15.02-52.82,3.92C36.23-6.98,11.06,2.61.11,32.29c.18,4.78,1.27,5.62,3.99,2.95l6.67-6.91c4.94-3.89,9.68-1.64,18.34-.48,17.25,6.84,32.68,7.2,46.44,1.67,3.27-1.07,4.38-.36,3.33,2.14-15.08,17.23-20.96,37.95-17.62,62.16.58,4.54-.81,6.25-3.1,6.67l-15.82.25c-10.81,2.11-17.12,7.78-17.8,15.06l13.86.4c13.25,2.36,26.55,10.06,25.19,26.55l-15.84-.24c-3.27-.38-18.41,6.96-9.71,9.47,16.34,4.3,28.44,11.52,27.94,26.2-1.56,22.47-19.11,41.46-44.79,59.57l3.84,3.28Z" style="fill:#1d1d1b; fill-rule:evenodd; stroke:#1d1d1b; stroke-miterlimit:22.93; stroke-width:.22px;"/></svg>