<svg width="800px" height="800px" viewBox="0 0 24 24" xmlns="http://www.w3.org/2000/svg" fill="none">
<g id="SVGRepo_bgCarrier" stroke-width="0"/>
<g id="SVGRepo_tracerCarrier" stroke-linecap="round" stroke-linejoin="round"/>
<g id="SVGRepo_iconCarrier">
  <path fill="#E326E4" d="M4 2a2 2 0 0 0-2 2v16a2 2 0 0 0 2 2h16a2 2 0 0 0 2-2V4a2 2 0 0 0-2-2H4z"/>
  <path fill="#ffffff" d="M7 6h10a1 1 0 0 1 0 2H7a1 1 0 0 1 0-2zm0 4h10a1 1 0 0 1 0 2H7a1 1 0 0 1 0-2zm0 4h6a1 1 0 0 1 0 2H7a1 1 0 0 1 0-2zm0 4h4a1 1 0 0 1 0 2H7a1 1 0 0 1 0-2z"/>
  <rect fill="#E326E4" x="3" y="2" width="2" height="20" rx="1"/>
</g>
</svg>
